<svg xmlns="http://www.w3.org/2000/svg" viewBox="0 0 107.62 36.68"><defs><style>.cls-1{fill:#fff;fill-rule:evenodd;}</style></defs><title>Ресурс 5</title><g id="Слой_2" data-name="Слой 2"><g id="Подвал"><g id="Мэйд_ин" data-name="Мэйд ин"><g id="Лого"><path class="cls-1" d="M43.81,26.15v-3c0-2.51-1.49-3.63-3.84-3.63a10.16,10.16,0,0,0-3.18.55v1.69a7.39,7.39,0,0,1,3-.64c1.42,0,2.18.73,2.18,1.76v.29A11,11,0,0,0,39.8,23c-1.73,0-3.7.66-3.7,2.78,0,1.71,1.4,2.54,2.9,2.54a4.81,4.81,0,0,0,3.13-1.07,1.66,1.66,0,0,0,1.66,1A3.23,3.23,0,0,0,45,28V26.65a2,2,0,0,1-.55.1A.54.54,0,0,1,43.81,26.15ZM42,25.87a3.37,3.37,0,0,1-2.4,1c-.83,0-1.56-.41-1.56-1.23,0-1,1.11-1.37,2.16-1.37a9.68,9.68,0,0,1,1.8.21Zm5.65-2a2.67,2.67,0,0,1,3-2.73,4.06,4.06,0,0,1,2.3.69V20.18a5,5,0,0,0-2.56-.64A4.3,4.3,0,0,0,45.73,24a4.19,4.19,0,0,0,4.48,4.3A6.24,6.24,0,0,0,53,27.72V26a5,5,0,0,1-2.42.64A2.67,2.67,0,0,1,47.61,23.92Zm14.21,2.23v-3c0-2.51-1.49-3.63-3.84-3.63a10.16,10.16,0,0,0-3.18.55v1.69a7.39,7.39,0,0,1,3-.64c1.42,0,2.18.73,2.18,1.76v.29A11,11,0,0,0,57.81,23c-1.73,0-3.7.66-3.7,2.78,0,1.71,1.4,2.54,2.9,2.54a4.81,4.81,0,0,0,3.13-1.07,1.66,1.66,0,0,0,1.66,1A3.23,3.23,0,0,0,63,28V26.65a2,2,0,0,1-.55.1A.54.54,0,0,1,61.82,26.15ZM60,25.87a3.37,3.37,0,0,1-2.4,1c-.83,0-1.56-.41-1.56-1.23,0-1,1.11-1.37,2.16-1.37a9.68,9.68,0,0,1,1.8.21Zm10.87-5a3.84,3.84,0,0,0-3-1.3,4.12,4.12,0,0,0-4.11,4.37,4.12,4.12,0,0,0,4.11,4.37A3.86,3.86,0,0,0,71,26.75v1.31h1.66V16H70.84Zm0,4.08a2.88,2.88,0,0,1-2.64,1.75,2.56,2.56,0,0,1-2.58-2.75,2.56,2.56,0,0,1,2.58-2.75,2.9,2.9,0,0,1,2.64,1.73Zm7.86-5.37a4.16,4.16,0,0,0-4.2,4.37c0,2.92,2.16,4.37,4.7,4.37a7.11,7.11,0,0,0,3-.57V26.13a6.08,6.08,0,0,1-2.63.59c-1.52,0-3-.62-3.18-2.11h6.24C83.13,22.21,82,19.55,78.68,19.55Zm2.25,3.68h-4.6a2.26,2.26,0,0,1,2.44-2.14A2,2,0,0,1,80.93,23.23Zm13.45-3.68a4.11,4.11,0,0,0-2.9,1.33,2.83,2.83,0,0,0-2.59-1.33,3.79,3.79,0,0,0-2.77,1.26v-1H84.47v8.3h1.85v-5.6a3,3,0,0,1,2.19-1.28,1.58,1.58,0,0,1,1.64,1.75v5.13H92V22.88c0-.19,0-.38,0-.57A2.79,2.79,0,0,1,94,21.19a1.58,1.58,0,0,1,1.64,1.75v5.13h1.85V22.88A3,3,0,0,0,94.38,19.54Zm11.3.22L103.21,26l-2.8-6.26h-2l3.94,8.36-.17.41c-.48,1.3-1.16,1.94-2.06,1.94a2.87,2.87,0,0,1-.85-.12v1.57a4.7,4.7,0,0,0,1.09.14c1.26,0,2.44-.73,3.34-2.89l3.89-9.42ZM38.55,8a2.92,2.92,0,0,1,2.32-1.38,1.8,1.8,0,0,1,1.94,2v4.89h1.85V8.41A3.23,3.23,0,0,0,41.23,5a3.78,3.78,0,0,0-2.68,1.14V1.44H36.7v12.1h1.85Zm11.16,2.63V6.87h3V5.24h-3v-3l-1.83.45V5.24H46.39V6.87h1.49V11a2.54,2.54,0,0,0,2.85,2.73A6.78,6.78,0,0,0,53,13.39V11.8a4.47,4.47,0,0,1-1.68.33C50.21,12.12,49.71,11.76,49.71,10.67Zm7.22-2.73a2.94,2.94,0,0,1,2.19-1.28,1.58,1.58,0,0,1,1.64,1.75v5.13h1.85V8.36c0-.19,0-.38,0-.57a2.79,2.79,0,0,1,2.06-1.12,1.58,1.58,0,0,1,1.64,1.75v5.13h1.85V8.36A3,3,0,0,0,65,5a4.1,4.1,0,0,0-2.9,1.33A2.83,2.83,0,0,0,59.49,5a3.79,3.79,0,0,0-2.77,1.26v-1H55.09v8.3h1.85Zm13.9,5.6h1.85V1.44H70.84ZM14.48,0,0,1.52V28.07l14.48,8.62L29,28.07V1.52L14.64,0ZM27.07,27,14.48,34.48,1.89,27V16.11l12.54,7.46,0,1.35L5.85,19.8v1.31l8.63,5.19,0,1.39L5.86,22.56v1.31l8.63,5.19,8.72-5.22V22.53h0V18.24l3.88-2.32Zm0-12.48-3.44,2L22,17.48,14.45,13v1.31l6.48,3.85-.06,0-.14.08-.92.54-5.35-3.18v1.31l4.22,2.51-1,.67h0l-3.19-1.88v1.31l2.09,1.23L14.4,22.06,1.92,14.65,14.41,7.14h0Zm0-1.32L14.42,5.73h0L1.89,13.18v-10L14.48,1.9,27.07,3.22Z"/></g></g></g></g></svg>